<svg width="52" height="64" viewBox="0 0 52 64" fill="none" xmlns="http://www.w3.org/2000/svg">
<path d="M34.0847 25.4241L24.3998 13.2394C23.8055 12.4921 22.9997 12.0724 22.1595 12.0726C21.3193 12.0729 20.5135 12.493 19.9196 13.2407C19.3256 13.9883 18.992 15.0022 18.9922 16.0593C18.9924 17.1164 19.3263 18.1301 19.9206 18.8774L29.6055 31.0594C29.7038 31.1828 29.7818 31.3294 29.8351 31.4908C29.8883 31.6522 29.9157 31.8252 29.9157 32C29.9157 32.1747 29.8883 32.3477 29.8351 32.5091C29.7818 32.6705 29.7038 32.8171 29.6055 32.9405L19.9206 45.1226C19.3263 45.8699 18.9924 46.8836 18.9922 47.9406C18.992 48.9977 19.3256 50.0116 19.9196 50.7593C20.5135 51.5069 21.3193 51.9271 22.1595 51.9273C22.9997 51.9276 23.8055 51.5079 24.3998 50.7606L34.0847 38.5759C35.4684 36.8302 36.2455 34.4654 36.2455 32C36.2455 29.5346 35.4684 27.1698 34.0847 25.4241Z" fill="black"/>
</svg>
