<svg width="100" height="100" viewBox="0 0 100 100" fill="none" xmlns="http://www.w3.org/2000/svg">
<g clip-path="url(#clip0_39_3)">
<path d="M25 25C10.7458 25 0 32.1666 0 41.6666V84.375C0 93.4291 10.5125 100 25 100C39.4875 100 50 93.4291 50 84.375V41.6666C50 32.1666 39.2542 25 25 25ZM37.5 62.45C37.125 63.6333 32.7833 66.6666 25 66.6666C17.1708 66.6666 12.8208 63.5958 12.5 62.5V56.2416C16.1333 57.5791 20.3833 58.3333 25 58.3333C29.6167 58.3333 33.8667 57.5791 37.5 56.2416V62.45ZM25 37.5C32.6792 37.5 37.0042 40.45 37.4833 41.6666C37.0042 42.8833 32.6792 45.8333 25 45.8333C17.2167 45.8333 12.875 42.8 12.5 41.7583V41.7166C12.875 40.5333 17.2167 37.5 25 37.5ZM25 87.5C17.8125 87.5 13.4042 85.1542 12.5 84.0083V77.075C16.1333 78.4125 20.3833 79.1666 25 79.1666C29.6167 79.1666 33.8667 78.4125 37.5 77.075V84.0083C36.5958 85.1542 32.1875 87.5 25 87.5ZM57.8708 37.5C56.4125 30.4375 51.325 24.5292 43.9208 20.8333H72.9125C76.3625 20.8333 79.1625 23.6333 79.1625 27.0833V31.25C79.1625 34.7 76.3625 37.5 72.9125 37.5H57.8667H57.8708ZM100 22.9167V77.0833C100 89.7208 89.7167 100 77.0833 100H62.5C59.05 100 56.25 97.2041 56.25 93.75C56.25 90.2958 59.05 87.5 62.5 87.5H77.0833C82.8292 87.5 87.5 82.825 87.5 77.0833V22.9167C87.5 17.175 82.8292 12.5 77.0833 12.5H39.5833C35.7958 12.5 32.3042 14.5583 30.4667 17.875C28.7958 20.8958 24.9917 21.9833 21.9708 20.3125C18.95 18.6416 17.8625 14.8375 19.5375 11.8167C23.575 4.52915 31.2542 0.00415039 39.5875 0.00415039H77.0875C89.7208 0.00415039 100.004 10.2833 100.004 22.9208L100 22.9167ZM79.1667 52.0833C79.1667 55.5375 76.3667 58.3333 72.9167 58.3333H68.75C65.3 58.3333 62.5 55.5375 62.5 52.0833C62.5 48.6291 65.3 45.8333 68.75 45.8333H72.9167C76.3667 45.8333 79.1667 48.6291 79.1667 52.0833ZM79.1667 72.9166C79.1667 76.3708 76.3667 79.1666 72.9167 79.1666H68.75C65.3 79.1666 62.5 76.3708 62.5 72.9166C62.5 69.4625 65.3 66.6666 68.75 66.6666H72.9167C76.3667 66.6666 79.1667 69.4625 79.1667 72.9166Z" fill="black"/>
</g>
<defs>
<clipPath id="clip0_39_3">
<rect width="100" height="100" fill="white"/>
</clipPath>
</defs>
</svg>
