<svg width="100" height="100" viewBox="0 0 100 100" fill="none" xmlns="http://www.w3.org/2000/svg">
<g clip-path="url(#clip0_42_15)">
<path d="M99.75 27.4583L96.0833 45.75C94.125 55.4583 85.5417 62.5 75.6667 62.5H28.0417C29.7917 67.4167 34.4167 70.8333 39.8333 70.8333H79.1667C81.4583 70.8333 83.3333 72.7083 83.3333 75C83.3333 77.2917 81.4583 79.1667 79.1667 79.1667H39.8333C29.2917 79.1667 20.375 71.25 19.125 60.75L13.375 12C13.125 9.91667 11.3333 8.33333 9.25 8.33333H4.16667C1.875 8.33333 0 6.45833 0 4.16667C0 1.875 1.875 0 4.16667 0H9.25C15.5833 0 20.9167 4.75 21.6667 11.0417L21.8333 12.5H37.5C39.7917 12.5 41.6667 14.375 41.6667 16.6667C41.6667 18.9583 39.7917 20.8333 37.5 20.8333H22.8333L26.75 54.1667H75.6667C81.5833 54.1667 86.75 49.9583 87.9167 44.125L91.5833 25.8333C91.8333 24.625 91.5 23.3333 90.7083 22.375C89.9167 21.4167 88.75 20.8333 87.5 20.8333H70.8333C68.5417 20.8333 66.6667 18.9583 66.6667 16.6667C66.6667 14.375 68.5417 12.5 70.8333 12.5H87.5C91.25 12.5 94.7917 14.1667 97.1667 17.0833C99.5417 20 100.5 23.7917 99.75 27.4583ZM29.1667 83.3333C24.5833 83.3333 20.8333 87.0833 20.8333 91.6667C20.8333 96.25 24.5833 100 29.1667 100C33.75 100 37.5 96.25 37.5 91.6667C37.5 87.0833 33.75 83.3333 29.1667 83.3333ZM70.8333 83.3333C66.25 83.3333 62.5 87.0833 62.5 91.6667C62.5 96.25 66.25 100 70.8333 100C75.4167 100 79.1667 96.25 79.1667 91.6667C79.1667 87.0833 75.4167 83.3333 70.8333 83.3333ZM38.625 30.2083C37.0417 31.875 37.1667 34.5417 38.8333 36.0833L45.3333 42.1667C47.7917 44.625 51 45.8333 54.2083 45.8333C57.4167 45.8333 60.5417 44.625 62.9167 42.25L69.5417 36.0833C71.2083 34.5 71.2917 31.875 69.75 30.2083C68.1667 28.5417 65.5417 28.4167 63.875 30L58.375 35.125V4.16667C58.375 1.875 56.5 0 54.2083 0C51.9167 0 50.0417 1.875 50.0417 4.16667V35.125L44.5417 30C42.875 28.4167 40.2083 28.5417 38.6667 30.2083H38.625Z" fill="black"/>
</g>
<defs>
<clipPath id="clip0_42_15">
<rect width="100" height="100" fill="white"/>
</clipPath>
</defs>
</svg>
