<svg width="184" height="30" viewBox="0 0 184 30" fill="none" xmlns="http://www.w3.org/2000/svg">
<g clip-path="url(#clip0_32_3)">
<path d="M74.9208 12.2958L76.588 12.2575C78.221 12.2575 78.7504 11.3309 78.7504 9.01426C78.7504 6.69762 78.2757 5.63883 76.831 5.63883H74.9218V29.993H68.604L68.6031 0.588282H78.0883C83.3809 0.588282 85.014 3.41143 85.014 7.95547C85.014 11.1767 84.1981 13.691 81.1979 14.4849C83.7781 14.9484 84.9808 16.9174 84.9808 20.298V27.4334C84.9808 28.7352 85.3233 29.75 85.5434 29.993H79.1574C78.9817 29.7388 78.7168 28.7791 78.7168 27.4778V19.6578C78.7168 18.2575 77.9991 17.2099 76.4768 17.2099H74.9204V12.2958M14.1596 24.9929C15.289 24.0519 15.4824 22.8842 15.4824 21.8399V17.444H9.3446V23.4089C9.3446 24.2612 8.6526 24.9527 7.8008 24.9527C6.94899 24.9527 6.31493 24.2607 6.31493 23.4089V6.50979C6.31493 5.65658 6.94899 4.96598 7.8008 4.96598C8.6526 4.96598 9.3446 5.65658 9.3446 6.50979V12.5107H15.475V6.2855C15.475 2.84512 13.2265 0.0135606 7.74987 0.00701904C2.126 0.00701904 0 2.85072 0 6.29158V23.9351C0 27.3456 2.70727 29.9257 6.16962 29.9257H8.07134L14.1596 24.9929ZM172.742 12.2411V5.62341H174.661C176.105 5.62341 176.58 6.6822 176.58 8.99885C176.58 11.3141 176.051 12.2411 174.418 12.2411H172.742L172.764 17.1935H174.308C175.829 17.1935 176.547 18.2411 176.547 19.6415V27.4619C176.547 28.7637 176.812 29.7234 176.987 29.9771H183.374C183.153 29.7342 182.812 28.7197 182.812 27.4184V20.2816C182.812 16.901 181.609 14.932 179.029 14.4685C182.027 13.6751 182.845 11.1604 182.845 7.94005C182.845 3.39601 181.212 0.572863 175.918 0.572863H166.433L166.434 29.9767H172.764V17.1935L172.742 12.2411ZM157.209 24.7757L156.566 19.398L154.925 5.67807L153.285 19.3994L156.566 19.398L157.209 24.7757L152.64 24.7789L152.019 29.9767H145.622L150.669 0.517727H159.161L164.228 29.9767H157.831L157.209 24.7757ZM116.825 29.9743V0.582208H123.3V24.3944H130.05V29.9743H116.825ZM106.921 29.9743H113.396V0.582208H106.921V29.9743Z" fill="black"/>
<path d="M116.825 29.9743V0.582208H123.3V24.3944H130.05V29.9743H116.825ZM131.605 29.9743V0.582208H138.079V24.3944H144.828V29.9743H131.605ZM104.75 9.45068C104.75 14.612 103.769 18.3182 97.9569 18.3182H94.417L94.3945 13.0901L96.3252 13.113C97.9569 13.113 98.233 12.2308 98.233 9.45115C98.233 6.76023 97.9569 5.63509 96.3136 5.63509H94.3941V13.0901L94.417 18.3182V29.9879H88.0871L88.0862 0.584077H97.9569C103.769 0.584077 104.75 4.28846 104.75 9.45068ZM57.6689 6.18598V12.0094H64.3754V17.7664H57.6689V24.2958L65.63 24.293L65.6328 29.965L51.19 29.9701V0.578003H51.1839H65.3683V6.18598H57.6689ZM38.3564 25.6859V6.29672H34.1217V0.583143H49.4518V6.29672H45.1942V29.8907H43.3793L38.3564 25.6859Z" fill="black"/>
<path d="M41.1029 29.9323L26.1741 17.4253L10.7034 29.9323H41.1029Z" fill="#FDB827"/>
<path d="M24.5238 14.0499L26.1774 5.60193L27.8207 14.0499H24.5238L26.1774 15.4839L35.8519 23.5898L30.435 0.616333H21.8824L16.8992 22.9711L26.1774 15.4839L24.5238 14.0499Z" fill="black"/>
</g>
<defs>
<clipPath id="clip0_32_3">
<rect width="183.374" height="30" fill="white"/>
</clipPath>
</defs>
</svg>
