<svg width="151" height="32" viewBox="0 0 151 32" fill="none" xmlns="http://www.w3.org/2000/svg">
<g clip-path="url(#clip0_32_20)">
<path fill-rule="evenodd" clip-rule="evenodd" d="M9.16572 2.71278L8.594 2.80906L7.82972 3.04976L7.40261 3.32667L7.11377 3.53117L6.59 4.05494L5.91603 4.96345L5.63335 5.63145L5.43482 6.34142L0.94561 23.8946L0.662928 24.9899L0.560485 25.321L0.512344 25.6036L0.422225 25.9888V26.3319L0.374084 26.6146L0.422225 27.0479L0.464204 27.4272L0.662928 27.8605L0.897469 28.1913L1.14433 28.4742L1.51733 28.6725L1.95059 28.8169L2.42603 28.8593L2.8593 28.9074H22.4585L22.6511 28.8593L22.6932 28.8169L22.7895 28.426L23.3732 26.3319L23.5116 25.6579L23.8967 24.2195L24.4203 22.1677L24.5166 21.8847L24.5586 21.6382L24.5166 21.5901L24.4203 21.5539H15.2434L15.1952 21.4997V21.4035L15.2915 21.0243L15.5203 20.1638L15.6707 19.5922L16.3387 16.812L16.7238 15.4219L17.3437 13.033L17.867 11.0351L18.3908 9.06734L18.4871 8.92908L18.5891 8.88094H24.9918L25.0881 8.83857L25.1305 8.73652L25.5638 7.02136L25.997 5.44485L26.2859 4.28948L26.6589 2.76092L26.6165 2.71278H9.16572ZM32.4898 2.71278L32.2551 2.76092L32.2129 2.80906L32.1167 3.18841L31.9665 3.85621L26.3821 25.6036L26.2316 26.3319L26.1834 26.9456L26.3338 27.5173L26.5686 27.9987L27.044 28.4742L27.4291 28.6725L28.0488 28.8169L28.482 28.8593L28.7709 28.9074H45.6442L45.7405 28.8593V28.7688L46.0235 27.6134L46.1679 27.1863L46.4988 25.8505L47.606 21.6382L47.5579 21.5901L47.5037 21.5539H41.3899L41.1912 21.4997L41.143 21.4516L41.5763 19.8208L45.7405 3.42892L45.8791 2.94751L45.9272 2.80906L45.8791 2.71278H32.4898ZM57.8359 2.71278L57.4929 2.76092L57.1617 2.80906L56.8247 2.89956L56.3976 3.04976L55.6696 3.48303L55.3445 3.71795L54.9655 4.05494L54.6224 4.44006L54.436 4.81903L54.1953 5.29446L53.6715 7.05756L48.316 27.4752L47.979 28.8593L48.0271 28.9074H60.7062L60.9409 28.8593L60.977 28.8169L61.6149 26.5665L61.8015 25.7061L62.1805 24.3219L62.7524 22.0233L62.8487 21.7403L62.8968 21.6863L62.9869 21.6382H68.5412L68.5893 21.6863L68.6375 21.7765V28.8171L68.6735 28.9074H81.5931L81.6836 28.8593L81.7317 28.7688V2.85739L81.6836 2.76111L81.5931 2.71297H68.6737L68.6377 2.80925V15.4221L68.5895 15.5184H64.5216L64.4673 15.4702L64.5216 15.2838L64.6237 14.995L65.0993 13.328L65.5326 11.5048L65.7671 10.644L66.0502 9.64522L66.2848 8.59826L66.8143 6.58829L67.061 5.87234L67.5905 3.85621L67.8613 2.80925L67.8131 2.76111L67.723 2.71297L57.8359 2.71278ZM93.9594 2.71278L93.3456 2.80906L92.5874 3.00162L91.9135 3.37481L91.6304 3.57334L91.149 4.01257L90.8544 4.38576L90.6316 5.01159L90.2888 6.10669L84.6502 27.7218L84.3614 28.6124V28.8171L84.4095 28.8593L84.4998 28.9074H96.8296L97.0343 28.8593L97.0766 28.8169L97.9851 25.4713L98.0333 25.2247L98.4666 23.6961L98.8939 21.9812L98.9901 21.7405L99.0321 21.6863L99.1765 21.6382H104.683L104.731 21.7403V28.7688L104.773 28.8593L104.821 28.9074H117.777L117.825 28.8593L117.873 28.7688V2.85739L117.825 2.76111L117.777 2.71297H104.821L104.773 2.76111L104.731 2.85739V15.5184L104.683 15.5786H100.609L100.518 15.5184V15.4702L100.807 14.327L103.527 4.15083L103.858 2.89918V2.76073L103.774 2.71259L93.9594 2.71278ZM129.054 2.71278L128.626 2.76092L128.241 2.8572L127.718 3.09213L127.05 3.57353L126.617 4.10308L126.274 4.62646L126.087 5.15004L125.949 5.4928L125.413 7.68339L125.323 7.97224L124.131 12.7563L123.837 13.6648L123.8 14.0923V14.9045L123.939 15.2355L124.318 15.9033L124.751 16.2465L125.04 16.3847L125.522 16.5172H133.639L133.7 16.5773V16.7217L133.501 17.6726L132.875 20.3022L132.592 21.3072L132.544 21.4997L132.448 21.5539H122.17L121.977 21.5901L121.881 21.6382V21.8246L121.694 22.601L120.587 26.8975L120.106 28.8171V28.8593L120.214 28.9074H141.336L141.673 28.8593H142.25L143.297 28.6725L143.971 28.3837L144.537 27.9985L144.97 27.6134L145.361 27.132L145.687 26.6568L145.975 25.9888L146.216 25.0381L146.733 22.9318L147.317 20.6392L147.408 20.3503L148.124 17.48L148.232 16.9083L148.316 16.6254L148.418 16.0959V15.2836L148.316 14.7541L148.124 14.2365L147.841 13.9417L147.552 13.7069L147.076 13.4662L146.499 13.3759H138.134L137.942 13.3278L137.9 13.2796L138.044 12.6538L138.568 10.5537L139.043 8.79063L139.091 8.68221H148.749L148.888 8.59806L148.984 8.41147L149.122 7.88192L149.466 6.44368L149.995 4.33762L150.374 2.76092L150.326 2.71278H129.054Z" fill="#D40000"/>
</g>
<defs>
<clipPath id="clip0_32_20">
<rect width="150" height="31.62" fill="white" transform="translate(0.374084)"/>
</clipPath>
</defs>
</svg>
