<svg width="550" height="91" viewBox="0 0 550 91" fill="none" xmlns="http://www.w3.org/2000/svg">
<rect width="550" height="90" transform="translate(0 0.57666)" fill="white"/>
<g clip-path="url(#clip0_51_97)">
<rect x="57" y="21.5767" width="208" height="48" rx="24" stroke="black" stroke-width="2"/>
<g clip-path="url(#clip1_51_97)">
<path d="M116.962 40.1951L109.947 47.2101C109.164 47.9903 108.105 48.4284 107 48.4284C105.895 48.4284 104.836 47.9903 104.053 47.2101L97.0383 40.1951C97.0267 40.3267 97 40.4459 97 40.5767V50.5767C97.0013 51.6814 97.4407 52.7404 98.2218 53.5216C99.003 54.3027 100.062 54.7421 101.167 54.7434H112.833C113.938 54.7421 114.997 54.3027 115.778 53.5216C116.559 52.7404 116.999 51.6814 117 50.5767V40.5767C117 40.4459 116.973 40.3267 116.962 40.1951Z" fill="#5B9A5B"/>
<path d="M108.768 46.0316L116.38 38.4191C116.011 37.8077 115.491 37.3016 114.87 36.9497C114.249 36.5978 113.547 36.4119 112.833 36.4099H101.167C100.453 36.4119 99.7512 36.5978 99.13 36.9497C98.5088 37.3016 97.9887 37.8077 97.62 38.4191L105.232 46.0316C105.701 46.4993 106.337 46.762 107 46.762C107.663 46.762 108.299 46.4993 108.768 46.0316Z" fill="#5B9A5B"/>
</g>
<path d="M126.326 51.0767V43.4403H128.344V44.7876H128.434C128.593 44.3402 128.858 43.9872 129.229 43.7286C129.6 43.4701 130.044 43.3409 130.561 43.3409C131.085 43.3409 131.531 43.4718 131.899 43.7336C132.267 43.9921 132.512 44.3435 132.635 44.7876H132.714C132.87 44.3501 133.152 44.0004 133.559 43.7386C133.97 43.4734 134.456 43.3409 135.016 43.3409C135.729 43.3409 136.307 43.5679 136.751 44.022C137.199 44.4727 137.422 45.1124 137.422 45.941V51.0767H135.309V46.3586C135.309 45.9344 135.197 45.6162 134.971 45.4041C134.746 45.192 134.464 45.0859 134.126 45.0859C133.742 45.0859 133.442 45.2085 133.226 45.4538C133.011 45.6957 132.903 46.0156 132.903 46.4133V51.0767H130.85V46.3139C130.85 45.9393 130.742 45.6411 130.527 45.419C130.315 45.1969 130.034 45.0859 129.686 45.0859C129.451 45.0859 129.239 45.1456 129.05 45.2649C128.864 45.3809 128.717 45.5449 128.608 45.7571C128.498 45.9659 128.444 46.2111 128.444 46.4929V51.0767H126.326ZM145.449 45.6179L143.51 45.7372C143.477 45.5715 143.406 45.4223 143.296 45.2897C143.187 45.1538 143.043 45.0461 142.864 44.9666C142.688 44.8837 142.478 44.8423 142.232 44.8423C141.904 44.8423 141.627 44.9119 141.402 45.0511C141.177 45.187 141.064 45.3693 141.064 45.598C141.064 45.7803 141.137 45.9344 141.283 46.0603C141.429 46.1863 141.679 46.2874 142.033 46.3636L143.415 46.642C144.158 46.7945 144.711 47.0397 145.076 47.3778C145.441 47.7159 145.623 48.16 145.623 48.7102C145.623 49.2107 145.475 49.6498 145.18 50.0277C144.889 50.4055 144.488 50.7005 143.977 50.9126C143.47 51.1214 142.885 51.2258 142.222 51.2258C141.211 51.2258 140.406 51.0153 139.806 50.5944C139.21 50.1702 138.86 49.5935 138.757 48.8643L140.84 48.7549C140.903 49.0632 141.056 49.2985 141.298 49.4609C141.54 49.62 141.849 49.6995 142.227 49.6995C142.598 49.6995 142.897 49.6283 143.122 49.4858C143.351 49.3399 143.467 49.1527 143.47 48.924C143.467 48.7317 143.386 48.5743 143.227 48.4517C143.067 48.3257 142.822 48.2296 142.491 48.1633L141.168 47.8998C140.423 47.7507 139.867 47.4921 139.503 47.1242C139.142 46.7563 138.961 46.2874 138.961 45.7173C138.961 45.2268 139.094 44.8042 139.359 44.4495C139.627 44.0949 140.003 43.8215 140.487 43.6292C140.974 43.437 141.545 43.3409 142.197 43.3409C143.162 43.3409 143.921 43.5447 144.474 43.9524C145.031 44.36 145.356 44.9152 145.449 45.6179ZM149.074 46.6619V51.0767H146.956V40.8948H149.015V44.7876H149.104C149.277 44.3368 149.555 43.9839 149.939 43.7286C150.324 43.4701 150.806 43.3409 151.386 43.3409C151.916 43.3409 152.379 43.4569 152.773 43.6889C153.171 43.9176 153.479 44.2474 153.698 44.6782C153.92 45.1058 154.029 45.6179 154.026 46.2144V51.0767H151.908V46.5923C151.912 46.1216 151.792 45.7554 151.55 45.4936C151.312 45.2317 150.977 45.1008 150.546 45.1008C150.258 45.1008 150.002 45.1621 149.78 45.2848C149.562 45.4074 149.389 45.5864 149.263 45.8217C149.141 46.0537 149.078 46.3338 149.074 46.6619ZM157.87 51.2208C157.383 51.2208 156.949 51.1363 156.568 50.9673C156.187 50.7949 155.885 50.5414 155.663 50.2066C155.444 49.8686 155.335 49.4476 155.335 48.9438C155.335 48.5196 155.413 48.1633 155.569 47.875C155.724 47.5866 155.936 47.3546 156.205 47.1789C156.473 47.0033 156.778 46.8707 157.12 46.7812C157.464 46.6917 157.826 46.6287 158.203 46.5923C158.648 46.5459 159.006 46.5028 159.277 46.463C159.549 46.4199 159.746 46.357 159.869 46.2741C159.992 46.1912 160.053 46.0686 160.053 45.9062V45.8764C160.053 45.5615 159.953 45.3179 159.755 45.1456C159.559 44.9732 159.281 44.887 158.919 44.887C158.538 44.887 158.235 44.9715 158.01 45.1406C157.784 45.3063 157.635 45.5151 157.562 45.767L155.603 45.6079C155.703 45.1439 155.898 44.7429 156.19 44.4048C156.482 44.0634 156.858 43.8016 157.319 43.6193C157.783 43.4337 158.319 43.3409 158.929 43.3409C159.354 43.3409 159.76 43.3906 160.147 43.49C160.538 43.5894 160.885 43.7436 161.186 43.9524C161.491 44.1612 161.732 44.4296 161.907 44.7578C162.083 45.0826 162.171 45.472 162.171 45.9261V51.0767H160.162V50.0177H160.103C159.98 50.2563 159.816 50.4668 159.61 50.6491C159.405 50.8281 159.158 50.9689 158.87 51.0717C158.581 51.1711 158.248 51.2208 157.87 51.2208ZM158.477 49.7592C158.788 49.7592 159.064 49.6979 159.302 49.5752C159.541 49.4493 159.728 49.2803 159.864 49.0681C160 48.856 160.068 48.6157 160.068 48.3473V47.5369C160.002 47.58 159.91 47.6197 159.794 47.6562C159.682 47.6893 159.554 47.7208 159.412 47.7507C159.269 47.7772 159.127 47.802 158.984 47.8252C158.842 47.8451 158.712 47.8634 158.596 47.8799C158.348 47.9164 158.131 47.9744 157.945 48.0539C157.759 48.1335 157.615 48.2412 157.512 48.3771C157.41 48.5097 157.358 48.6754 157.358 48.8742C157.358 49.1626 157.463 49.383 157.672 49.5355C157.884 49.6846 158.152 49.7592 158.477 49.7592ZM170.481 54.0099C169.424 54.0099 168.482 53.8657 167.657 53.5774C166.832 53.2923 166.134 52.8731 165.564 52.3196C164.994 51.7694 164.56 51.0965 164.261 50.3011C163.963 49.5056 163.814 48.6008 163.814 47.5866C163.814 46.5857 163.963 45.6775 164.261 44.8622C164.563 44.0468 165.002 43.3475 165.579 42.7642C166.156 42.1775 166.86 41.7268 167.692 41.4119C168.527 41.097 169.478 40.9396 170.545 40.9396C171.533 40.9396 172.415 41.0838 173.19 41.3721C173.969 41.6605 174.629 42.0715 175.169 42.6051C175.713 43.1354 176.125 43.7668 176.407 44.4992C176.692 45.2284 176.833 46.0355 176.83 46.9204C176.833 47.5303 176.78 48.0904 176.67 48.6008C176.561 49.1112 176.389 49.557 176.153 49.9382C175.921 50.316 175.616 50.616 175.239 50.838C174.861 51.0568 174.403 51.1811 173.866 51.2109C173.482 51.2407 173.17 51.2126 172.932 51.1264C172.693 51.0402 172.511 50.9126 172.385 50.7436C172.262 50.5712 172.183 50.3707 172.146 50.142H172.087C172.007 50.3409 171.851 50.5215 171.619 50.6839C171.387 50.843 171.104 50.9673 170.769 51.0568C170.438 51.1429 170.085 51.1744 169.71 51.1512C169.319 51.128 168.948 51.0369 168.597 50.8778C168.249 50.7187 167.939 50.4884 167.667 50.1867C167.398 49.8851 167.186 49.5123 167.031 49.0681C166.878 48.624 166.8 48.1103 166.797 47.5269C166.8 46.9502 166.881 46.4481 167.04 46.0206C167.203 45.593 167.417 45.2334 167.682 44.9417C167.95 44.6501 168.249 44.4214 168.577 44.2556C168.905 44.0899 169.235 43.9839 169.566 43.9375C169.941 43.8811 170.295 43.8811 170.63 43.9375C170.965 43.9938 171.246 44.0849 171.475 44.2109C171.707 44.3368 171.851 44.4727 171.908 44.6186H171.977V44.0617H173.533V48.914C173.537 49.1427 173.588 49.32 173.688 49.446C173.787 49.5719 173.921 49.6349 174.09 49.6349C174.319 49.6349 174.509 49.5338 174.662 49.3316C174.818 49.1295 174.934 48.8196 175.01 48.4019C175.089 47.9843 175.129 47.4524 175.129 46.8061C175.129 46.183 175.046 45.6361 174.881 45.1654C174.718 44.6915 174.49 44.2888 174.195 43.9573C173.903 43.6226 173.563 43.3508 173.175 43.142C172.788 42.9332 172.367 42.7807 171.913 42.6846C171.462 42.5885 170.998 42.5404 170.521 42.5404C169.695 42.5404 168.974 42.6664 168.358 42.9183C167.741 43.1669 167.228 43.5165 166.817 43.9673C166.406 44.418 166.098 44.9467 165.892 45.5532C165.69 46.1564 165.587 46.8143 165.584 47.5269C165.587 48.3125 165.696 49.0085 165.912 49.615C166.131 50.2182 166.452 50.7253 166.876 51.1363C167.301 51.5473 167.824 51.8589 168.447 52.071C169.071 52.2831 169.786 52.3892 170.595 52.3892C170.976 52.3892 171.349 52.361 171.714 52.3046C172.078 52.2516 172.408 52.1853 172.703 52.1058C172.998 52.0295 173.235 51.955 173.414 51.8821L173.906 53.3238C173.697 53.4431 173.414 53.5542 173.056 53.6569C172.701 53.763 172.3 53.8475 171.853 53.9105C171.409 53.9768 170.951 54.0099 170.481 54.0099ZM170.252 49.5156C170.656 49.5156 170.978 49.4377 171.217 49.2819C171.459 49.1261 171.631 48.8958 171.734 48.5909C171.84 48.2826 171.889 47.9031 171.883 47.4524C171.879 47.0546 171.828 46.7182 171.729 46.4431C171.633 46.1647 171.465 45.9543 171.227 45.8117C170.991 45.6659 170.663 45.593 170.242 45.593C169.874 45.593 169.561 45.6709 169.303 45.8267C169.047 45.9824 168.852 46.2012 168.716 46.4829C168.583 46.7613 168.515 47.0894 168.512 47.4673C168.515 47.8186 168.572 48.1517 168.681 48.4666C168.79 48.7781 168.971 49.0317 169.223 49.2272C169.475 49.4195 169.818 49.5156 170.252 49.5156ZM178.238 51.0767V43.4403H180.256V44.7876H180.346C180.505 44.3402 180.77 43.9872 181.141 43.7286C181.512 43.4701 181.956 43.3409 182.474 43.3409C182.997 43.3409 183.443 43.4718 183.811 43.7336C184.179 43.9921 184.424 44.3435 184.547 44.7876H184.626C184.782 44.3501 185.064 44.0004 185.471 43.7386C185.882 43.4734 186.368 43.3409 186.928 43.3409C187.641 43.3409 188.219 43.5679 188.663 44.022C189.111 44.4727 189.334 45.1124 189.334 45.941V51.0767H187.221V46.3586C187.221 45.9344 187.109 45.6162 186.883 45.4041C186.658 45.192 186.376 45.0859 186.038 45.0859C185.654 45.0859 185.354 45.2085 185.138 45.4538C184.923 45.6957 184.815 46.0156 184.815 46.4133V51.0767H182.762V46.3139C182.762 45.9393 182.654 45.6411 182.439 45.419C182.227 45.1969 181.947 45.0859 181.599 45.0859C181.363 45.0859 181.151 45.1456 180.962 45.2649C180.777 45.3809 180.629 45.5449 180.52 45.7571C180.41 45.9659 180.356 46.2111 180.356 46.4929V51.0767H178.238ZM193.185 51.2208C192.698 51.2208 192.263 51.1363 191.882 50.9673C191.501 50.7949 191.2 50.5414 190.977 50.2066C190.759 49.8686 190.649 49.4476 190.649 48.9438C190.649 48.5196 190.727 48.1633 190.883 47.875C191.039 47.5866 191.251 47.3546 191.519 47.1789C191.788 47.0033 192.093 46.8707 192.434 46.7812C192.779 46.6917 193.14 46.6287 193.518 46.5923C193.962 46.5459 194.32 46.5028 194.592 46.463C194.864 46.4199 195.061 46.357 195.183 46.2741C195.306 46.1912 195.367 46.0686 195.367 45.9062V45.8764C195.367 45.5615 195.268 45.3179 195.069 45.1456C194.874 44.9732 194.595 44.887 194.234 44.887C193.853 44.887 193.549 44.9715 193.324 45.1406C193.099 45.3063 192.95 45.5151 192.877 45.767L190.918 45.6079C191.017 45.1439 191.213 44.7429 191.504 44.4048C191.796 44.0634 192.172 43.8016 192.633 43.6193C193.097 43.4337 193.634 43.3409 194.244 43.3409C194.668 43.3409 195.074 43.3906 195.462 43.49C195.853 43.5894 196.199 43.7436 196.501 43.9524C196.806 44.1612 197.046 44.4296 197.222 44.7578C197.397 45.0826 197.485 45.472 197.485 45.9261V51.0767H195.477V50.0177H195.417C195.294 50.2563 195.13 50.4668 194.925 50.6491C194.719 50.8281 194.472 50.9689 194.184 51.0717C193.896 51.1711 193.563 51.2208 193.185 51.2208ZM193.791 49.7592C194.103 49.7592 194.378 49.6979 194.617 49.5752C194.855 49.4493 195.043 49.2803 195.178 49.0681C195.314 48.856 195.382 48.6157 195.382 48.3473V47.5369C195.316 47.58 195.225 47.6197 195.109 47.6562C194.996 47.6893 194.869 47.7208 194.726 47.7507C194.584 47.7772 194.441 47.802 194.298 47.8252C194.156 47.8451 194.027 47.8634 193.911 47.8799C193.662 47.9164 193.445 47.9744 193.259 48.0539C193.074 48.1335 192.93 48.2412 192.827 48.3771C192.724 48.5097 192.673 48.6754 192.673 48.8742C192.673 49.1626 192.777 49.383 192.986 49.5355C193.198 49.6846 193.467 49.7592 193.791 49.7592ZM199.128 51.0767V43.4403H201.246V51.0767H199.128ZM200.192 42.4559C199.877 42.4559 199.607 42.3515 199.382 42.1427C199.16 41.9306 199.049 41.677 199.049 41.3821C199.049 41.0904 199.16 40.8402 199.382 40.6313C199.607 40.4192 199.877 40.3132 200.192 40.3132C200.507 40.3132 200.776 40.4192 200.998 40.6313C201.223 40.8402 201.336 41.0904 201.336 41.3821C201.336 41.677 201.223 41.9306 200.998 42.1427C200.776 42.3515 200.507 42.4559 200.192 42.4559ZM205.061 40.8948V51.0767H202.943V40.8948H205.061ZM207.995 51.2059C207.667 51.2059 207.385 51.0899 207.15 50.8579C206.918 50.6226 206.802 50.3409 206.802 50.0127C206.802 49.6879 206.918 49.4095 207.15 49.1775C207.385 48.9455 207.667 48.8295 207.995 48.8295C208.313 48.8295 208.592 48.9455 208.83 49.1775C209.069 49.4095 209.188 49.6879 209.188 50.0127C209.188 50.2315 209.132 50.432 209.019 50.6143C208.91 50.7933 208.766 50.9375 208.587 51.0468C208.408 51.1529 208.211 51.2059 207.995 51.2059ZM210.927 51.0767V43.4403H212.98V44.7727H213.06C213.199 44.2987 213.433 43.9408 213.761 43.6988C214.089 43.4536 214.467 43.3309 214.895 43.3309C215.001 43.3309 215.115 43.3376 215.238 43.3508C215.36 43.3641 215.468 43.3823 215.561 43.4055V45.2848C215.461 45.2549 215.324 45.2284 215.148 45.2052C214.972 45.182 214.812 45.1704 214.666 45.1704C214.354 45.1704 214.076 45.2384 213.831 45.3742C213.589 45.5068 213.396 45.6924 213.254 45.9311C213.115 46.1697 213.045 46.4448 213.045 46.7563V51.0767H210.927ZM221.553 47.8252V43.4403H223.671V51.0767H221.637V49.6896H221.558C221.385 50.137 221.099 50.4966 220.698 50.7684C220.3 51.0402 219.814 51.1761 219.241 51.1761C218.731 51.1761 218.281 51.0601 217.894 50.8281C217.506 50.5961 217.203 50.2663 216.984 49.8387C216.768 49.4112 216.659 48.8991 216.656 48.3025V43.4403H218.774V47.9247C218.777 48.3754 218.898 48.7317 219.137 48.9936C219.375 49.2554 219.695 49.3863 220.096 49.3863C220.351 49.3863 220.59 49.3283 220.812 49.2123C221.034 49.093 221.213 48.9173 221.349 48.6853C221.488 48.4533 221.556 48.1666 221.553 47.8252Z" fill="#161616"/>
</g>
<g clip-path="url(#clip2_51_97)">
<rect x="283" y="21.5767" width="208" height="48" rx="24" stroke="black" stroke-width="2"/>
<g clip-path="url(#clip3_51_97)">
<path d="M322.67 49.7756C322.776 49.9642 322.775 50.0381 322.605 50.2392C321.984 50.9725 321.206 51.911 320.122 51.8246C316.37 51.8246 310.249 46.31 310.249 41.9527C310.249 41.3256 310.479 40.7465 310.898 40.3194L311.875 39.435C311.991 39.3183 312.174 39.31 312.3 39.4079L313.586 41.0433C313.853 41.2652 313.78 41.5142 313.552 41.7298L312.94 42.6037C312.739 42.8912 312.696 43.2631 312.827 43.5892C313.991 46.4902 315.691 48.186 318.508 49.261C318.83 49.3829 319.194 49.3392 319.478 49.1402L320.352 48.5277C320.579 48.285 320.807 48.2037 321.039 48.4933L322.668 49.7756H322.67ZM329 38.285V52.8683C329 55.7402 326.664 58.0767 323.792 58.0767H309.208C306.336 58.0767 304 55.7402 304 52.8683V38.285C304 35.4131 306.336 33.0767 309.208 33.0767H323.792C326.664 33.0767 329 35.4131 329 38.285ZM324.82 49.9725C324.82 49.3298 324.57 48.7267 324.115 48.2715C324.085 48.2423 324.054 48.2152 324.022 48.1892L322.37 46.8881C321.48 46.0475 319.992 46.0402 319.093 46.8662L318.749 47.1069C316.962 46.3183 315.825 45.1767 314.98 43.3235L315.216 42.9881C315.626 42.5433 315.849 41.9694 315.849 41.361C315.849 40.7412 315.617 40.1579 315.193 39.71L313.887 38.0517C313.862 38.0194 313.834 37.9881 313.805 37.96C312.865 37.0215 311.339 37.0225 310.442 37.9235L309.48 38.7912C309.467 38.8027 309.454 38.8152 309.442 38.8277C308.619 39.6506 308.166 40.759 308.166 41.9517C308.166 47.0683 314.92 53.8454 320.052 53.9069C320.075 53.9079 320.099 53.909 320.123 53.909C321.317 53.909 322.426 53.4558 323.282 52.5944L324.114 51.6725C324.569 51.2183 324.819 50.6142 324.819 49.9715L324.82 49.9725Z" fill="#5B9A5B"/>
</g>
<path d="M341.678 51.2159C340.913 51.2159 340.232 51.0916 339.635 50.843C339.042 50.5911 338.576 50.2481 338.238 49.8139C337.9 49.3797 337.731 48.8875 337.731 48.3373C337.731 47.9131 337.827 47.5236 338.019 47.169C338.215 46.811 338.48 46.5144 338.815 46.2791C339.149 46.0404 339.524 45.888 339.938 45.8217V45.7521C339.395 45.6427 338.954 45.3792 338.616 44.9616C338.278 44.5407 338.109 44.0518 338.109 43.495C338.109 42.968 338.263 42.499 338.571 42.088C338.879 41.6737 339.302 41.3489 339.839 41.1136C340.379 40.875 340.992 40.7556 341.678 40.7556C342.364 40.7556 342.976 40.875 343.513 41.1136C344.053 41.3522 344.477 41.6787 344.786 42.093C345.094 42.504 345.25 42.9713 345.253 43.495C345.25 44.0551 345.077 44.544 344.736 44.9616C344.394 45.3792 343.957 45.6427 343.423 45.7521V45.8217C343.831 45.888 344.201 46.0404 344.532 46.2791C344.867 46.5144 345.132 46.811 345.327 47.169C345.526 47.5236 345.627 47.9131 345.631 48.3373C345.627 48.8875 345.457 49.3797 345.119 49.8139C344.781 50.2481 344.313 50.5911 343.717 50.843C343.123 51.0916 342.444 51.2159 341.678 51.2159ZM341.678 49.6349C342.02 49.6349 342.318 49.5736 342.573 49.4509C342.828 49.325 343.027 49.1527 343.17 48.9339C343.316 48.7118 343.388 48.4566 343.388 48.1683C343.388 47.8733 343.314 47.6131 343.165 47.3877C343.016 47.159 342.813 46.9801 342.558 46.8508C342.303 46.7182 342.01 46.6519 341.678 46.6519C341.35 46.6519 341.057 46.7182 340.798 46.8508C340.54 46.9801 340.336 47.159 340.187 47.3877C340.041 47.6131 339.968 47.8733 339.968 48.1683C339.968 48.4566 340.039 48.7118 340.182 48.9339C340.324 49.1527 340.525 49.325 340.783 49.4509C341.042 49.5736 341.34 49.6349 341.678 49.6349ZM341.678 45.0859C341.963 45.0859 342.217 45.0279 342.439 44.9119C342.661 44.7959 342.835 44.6351 342.961 44.4296C343.087 44.2242 343.15 43.9872 343.15 43.7187C343.15 43.4536 343.087 43.2215 342.961 43.0227C342.835 42.8205 342.663 42.6631 342.444 42.5504C342.225 42.4344 341.97 42.3764 341.678 42.3764C341.39 42.3764 341.135 42.4344 340.913 42.5504C340.691 42.6631 340.517 42.8205 340.391 43.0227C340.268 43.2215 340.207 43.4536 340.207 43.7187C340.207 43.9872 340.27 44.2242 340.396 44.4296C340.522 44.6351 340.696 44.7959 340.918 44.9119C341.14 45.0279 341.393 45.0859 341.678 45.0859ZM350.863 45.9858C350.863 44.7528 351.027 43.6176 351.355 42.5802C351.687 41.5428 352.192 40.5816 352.872 39.6967H354.895C354.637 40.0248 354.396 40.4259 354.174 40.8998C353.952 41.3705 353.758 41.8875 353.593 42.4509C353.427 43.0144 353.298 43.5977 353.205 44.2009C353.112 44.8009 353.066 45.3958 353.066 45.9858C353.066 46.7713 353.145 47.5651 353.304 48.3671C353.467 49.1659 353.685 49.9083 353.961 50.5944C354.239 51.2805 354.551 51.8423 354.895 52.2798H352.872C352.192 51.3948 351.687 50.4337 351.355 49.3963C351.027 48.3589 350.863 47.222 350.863 45.9858ZM359.903 51.2159C359.137 51.2159 358.456 51.0916 357.86 50.843C357.266 50.5911 356.801 50.2481 356.463 49.8139C356.124 49.3797 355.955 48.8875 355.955 48.3373C355.955 47.9131 356.052 47.5236 356.244 47.169C356.439 46.811 356.704 46.5144 357.039 46.2791C357.374 46.0404 357.749 45.888 358.163 45.8217V45.7521C357.619 45.6427 357.178 45.3792 356.84 44.9616C356.502 44.5407 356.333 44.0518 356.333 43.495C356.333 42.968 356.487 42.499 356.796 42.088C357.104 41.6737 357.526 41.3489 358.063 41.1136C358.604 40.875 359.217 40.7556 359.903 40.7556C360.589 40.7556 361.2 40.875 361.737 41.1136C362.278 41.3522 362.702 41.6787 363.01 42.093C363.318 42.504 363.474 42.9713 363.477 43.495C363.474 44.0551 363.302 44.544 362.96 44.9616C362.619 45.3792 362.182 45.6427 361.648 45.7521V45.8217C362.056 45.888 362.425 46.0404 362.757 46.2791C363.091 46.5144 363.356 46.811 363.552 47.169C363.751 47.5236 363.852 47.9131 363.855 48.3373C363.852 48.8875 363.681 49.3797 363.343 49.8139C363.005 50.2481 362.538 50.5911 361.941 50.843C361.348 51.0916 360.669 51.2159 359.903 51.2159ZM359.903 49.6349C360.244 49.6349 360.543 49.5736 360.798 49.4509C361.053 49.325 361.252 49.1527 361.394 48.9339C361.54 48.7118 361.613 48.4566 361.613 48.1683C361.613 47.8733 361.539 47.6131 361.389 47.3877C361.24 47.159 361.038 46.9801 360.783 46.8508C360.528 46.7182 360.234 46.6519 359.903 46.6519C359.575 46.6519 359.281 46.7182 359.023 46.8508C358.764 46.9801 358.561 47.159 358.411 47.3877C358.266 47.6131 358.193 47.8733 358.193 48.1683C358.193 48.4566 358.264 48.7118 358.406 48.9339C358.549 49.1527 358.749 49.325 359.008 49.4509C359.267 49.5736 359.565 49.6349 359.903 49.6349ZM359.903 45.0859C360.188 45.0859 360.441 45.0279 360.664 44.9119C360.886 44.7959 361.06 44.6351 361.186 44.4296C361.311 44.2242 361.374 43.9872 361.374 43.7187C361.374 43.4536 361.311 43.2215 361.186 43.0227C361.06 42.8205 360.887 42.6631 360.669 42.5504C360.45 42.4344 360.195 42.3764 359.903 42.3764C359.615 42.3764 359.359 42.4344 359.137 42.5504C358.915 42.6631 358.741 42.8205 358.615 43.0227C358.493 43.2215 358.431 43.4536 358.431 43.7187C358.431 43.9872 358.494 44.2242 358.62 44.4296C358.746 44.6351 358.92 44.7959 359.142 44.9119C359.364 45.0279 359.618 45.0859 359.903 45.0859ZM369.353 51.3004C368.498 51.2971 367.762 51.0866 367.145 50.669C366.532 50.2514 366.06 49.6465 365.728 48.8544C365.4 48.0622 365.238 47.1093 365.241 45.9957C365.241 44.8854 365.405 43.9391 365.733 43.1569C366.065 42.3747 366.537 41.7798 367.15 41.3721C367.767 40.9611 368.501 40.7556 369.353 40.7556C370.204 40.7556 370.937 40.9611 371.55 41.3721C372.167 41.7831 372.641 42.3797 372.972 43.1619C373.303 43.9408 373.467 44.8854 373.464 45.9957C373.464 47.1126 373.298 48.0672 372.967 48.8593C372.639 49.6515 372.168 50.2563 371.555 50.674C370.942 51.0916 370.208 51.3004 369.353 51.3004ZM369.353 49.5156C369.936 49.5156 370.402 49.2223 370.75 48.6356C371.098 48.049 371.27 47.169 371.267 45.9957C371.267 45.2234 371.187 44.5804 371.028 44.0667C370.872 43.553 370.65 43.1669 370.362 42.9083C370.077 42.6498 369.74 42.5206 369.353 42.5206C368.773 42.5206 368.309 42.8106 367.961 43.3906C367.613 43.9706 367.437 44.839 367.434 45.9957C367.434 46.7779 367.511 47.4308 367.667 47.9545C367.826 48.4749 368.05 48.866 368.338 49.1278C368.627 49.3863 368.965 49.5156 369.353 49.5156ZM378.991 51.3004C378.136 51.2971 377.4 51.0866 376.784 50.669C376.171 50.2514 375.698 49.6465 375.367 48.8544C375.039 48.0622 374.876 47.1093 374.88 45.9957C374.88 44.8854 375.044 43.9391 375.372 43.1569C375.703 42.3747 376.176 41.7798 376.789 41.3721C377.405 40.9611 378.14 40.7556 378.991 40.7556C379.843 40.7556 380.576 40.9611 381.189 41.3721C381.805 41.7831 382.279 42.3797 382.611 43.1619C382.942 43.9408 383.106 44.8854 383.103 45.9957C383.103 47.1126 382.937 48.0672 382.606 48.8593C382.278 49.6515 381.807 50.2563 381.194 50.674C380.581 51.0916 379.846 51.3004 378.991 51.3004ZM378.991 49.5156C379.575 49.5156 380.04 49.2223 380.388 48.6356C380.736 48.049 380.909 47.169 380.905 45.9957C380.905 45.2234 380.826 44.5804 380.667 44.0667C380.511 43.553 380.289 43.1669 380.001 42.9083C379.715 42.6498 379.379 42.5206 378.991 42.5206C378.411 42.5206 377.947 42.8106 377.599 43.3906C377.251 43.9706 377.076 44.839 377.072 45.9957C377.072 46.7779 377.15 47.4308 377.306 47.9545C377.465 48.4749 377.689 48.866 377.977 49.1278C378.265 49.3863 378.604 49.5156 378.991 49.5156ZM388.227 45.9858C388.227 47.222 388.062 48.3589 387.73 49.3963C387.402 50.4337 386.898 51.3948 386.219 52.2798H384.195C384.454 51.9517 384.694 51.5506 384.916 51.0767C385.138 50.6027 385.332 50.0857 385.498 49.5255C385.664 48.9621 385.793 48.3787 385.886 47.7755C385.978 47.1723 386.025 46.5757 386.025 45.9858C386.025 45.2002 385.944 44.4081 385.781 43.6093C385.622 42.8072 385.403 42.0648 385.125 41.3821C384.85 40.696 384.54 40.1342 384.195 39.6967H386.219C386.898 40.5816 387.402 41.5428 387.73 42.5802C388.062 43.6176 388.227 44.7528 388.227 45.9858ZM393.607 51.0767V49.5255L397.231 46.1697C397.539 45.8714 397.798 45.6029 398.006 45.3643C398.219 45.1257 398.379 44.892 398.489 44.6633C398.598 44.4313 398.653 44.1811 398.653 43.9126C398.653 43.6143 398.585 43.3574 398.449 43.142C398.313 42.9233 398.127 42.7559 397.892 42.6399C397.657 42.5206 397.39 42.4609 397.092 42.4609C396.78 42.4609 396.508 42.5239 396.276 42.6498C396.044 42.7758 395.865 42.9564 395.739 43.1917C395.613 43.427 395.55 43.7071 395.55 44.0319H393.507C393.507 43.3657 393.658 42.7874 393.96 42.2968C394.261 41.8063 394.684 41.4268 395.227 41.1583C395.771 40.8899 396.397 40.7556 397.107 40.7556C397.836 40.7556 398.47 40.8849 399.011 41.1434C399.554 41.3986 399.977 41.7533 400.278 42.2073C400.58 42.6614 400.731 43.1818 400.731 43.7684C400.731 44.1529 400.655 44.5324 400.502 44.9069C400.353 45.2814 400.086 45.6974 399.702 46.1548C399.317 46.6089 398.775 47.1541 398.076 47.7904L396.589 49.2471V49.3167H400.865V51.0767H393.607ZM402.425 51.0767V49.5255L406.049 46.1697C406.357 45.8714 406.616 45.6029 406.825 45.3643C407.037 45.1257 407.198 44.892 407.307 44.6633C407.416 44.4313 407.471 44.1811 407.471 43.9126C407.471 43.6143 407.403 43.3574 407.267 43.142C407.131 42.9233 406.946 42.7559 406.71 42.6399C406.475 42.5206 406.208 42.4609 405.91 42.4609C405.598 42.4609 405.327 42.5239 405.095 42.6498C404.863 42.7758 404.684 42.9564 404.558 43.1917C404.432 43.427 404.369 43.7071 404.369 44.0319H402.325C402.325 43.3657 402.476 42.7874 402.778 42.2968C403.079 41.8063 403.502 41.4268 404.046 41.1583C404.589 40.8899 405.216 40.7556 405.925 40.7556C406.654 40.7556 407.289 40.8849 407.829 41.1434C408.373 41.3986 408.795 41.7533 409.097 42.2073C409.398 42.6614 409.549 43.1818 409.549 43.7684C409.549 44.1529 409.473 44.5324 409.32 44.9069C409.171 45.2814 408.905 45.6974 408.52 46.1548C408.136 46.6089 407.594 47.1541 406.894 47.7904L405.408 49.2471V49.3167H409.683V51.0767H402.425ZM411.243 51.0767V49.5255L414.868 46.1697C415.176 45.8714 415.434 45.6029 415.643 45.3643C415.855 45.1257 416.016 44.892 416.125 44.6633C416.235 44.4313 416.289 44.1811 416.289 43.9126C416.289 43.6143 416.221 43.3574 416.086 43.142C415.95 42.9233 415.764 42.7559 415.529 42.6399C415.293 42.5206 415.027 42.4609 414.728 42.4609C414.417 42.4609 414.145 42.5239 413.913 42.6498C413.681 42.7758 413.502 42.9564 413.376 43.1917C413.25 43.427 413.187 43.7071 413.187 44.0319H411.144C411.144 43.3657 411.295 42.7874 411.596 42.2968C411.898 41.8063 412.32 41.4268 412.864 41.1583C413.408 40.8899 414.034 40.7556 414.743 40.7556C415.472 40.7556 416.107 40.8849 416.647 41.1434C417.191 41.3986 417.614 41.7533 417.915 42.2073C418.217 42.6614 418.368 43.1818 418.368 43.7684C418.368 44.1529 418.291 44.5324 418.139 44.9069C417.99 45.2814 417.723 45.6974 417.338 46.1548C416.954 46.6089 416.412 47.1541 415.713 47.7904L414.226 49.2471V49.3167H418.502V51.0767H411.243ZM424.839 45.1456V46.8259H420.196V45.1456H424.839ZM430.616 51.3004C429.761 51.2971 429.025 51.0866 428.409 50.669C427.796 50.2514 427.323 49.6465 426.992 48.8544C426.664 48.0622 426.501 47.1093 426.505 45.9957C426.505 44.8854 426.669 43.9391 426.997 43.1569C427.328 42.3747 427.801 41.7798 428.414 41.3721C429.03 40.9611 429.765 40.7556 430.616 40.7556C431.468 40.7556 432.201 40.9611 432.814 41.3721C433.43 41.7831 433.904 42.3797 434.236 43.1619C434.567 43.9408 434.731 44.8854 434.728 45.9957C434.728 47.1126 434.562 48.0672 434.231 48.8593C433.903 49.6515 433.432 50.2563 432.819 50.674C432.206 51.0916 431.471 51.3004 430.616 51.3004ZM430.616 49.5156C431.2 49.5156 431.665 49.2223 432.013 48.6356C432.361 48.049 432.534 47.169 432.53 45.9957C432.53 45.2234 432.451 44.5804 432.292 44.0667C432.136 43.553 431.914 43.1669 431.626 42.9083C431.34 42.6498 431.004 42.5206 430.616 42.5206C430.036 42.5206 429.572 42.8106 429.224 43.3906C428.876 43.9706 428.701 44.839 428.697 45.9957C428.697 46.7779 428.775 47.4308 428.931 47.9545C429.09 48.4749 429.314 48.866 429.602 49.1278C429.89 49.3863 430.229 49.5156 430.616 49.5156ZM436.109 49.2869V47.5916L440.359 40.8948H441.821V43.2414H440.956L438.276 47.4822V47.5617H444.317V49.2869H436.109ZM440.996 51.0767V48.7698L441.036 48.0191V40.8948H443.054V51.0767H440.996ZM450.529 45.1456V46.8259H445.885V45.1456H450.529ZM456.306 51.3004C455.451 51.2971 454.715 51.0866 454.098 50.669C453.485 50.2514 453.013 49.6465 452.681 48.8544C452.353 48.0622 452.191 47.1093 452.194 45.9957C452.194 44.8854 452.358 43.9391 452.686 43.1569C453.018 42.3747 453.49 41.7798 454.103 41.3721C454.72 40.9611 455.454 40.7556 456.306 40.7556C457.158 40.7556 457.89 40.9611 458.503 41.3721C459.12 41.7831 459.594 42.3797 459.925 43.1619C460.257 43.9408 460.421 44.8854 460.417 45.9957C460.417 47.1126 460.252 48.0672 459.92 48.8593C459.592 49.6515 459.121 50.2563 458.508 50.674C457.895 51.0916 457.161 51.3004 456.306 51.3004ZM456.306 49.5156C456.889 49.5156 457.355 49.2223 457.703 48.6356C458.051 48.049 458.223 47.169 458.22 45.9957C458.22 45.2234 458.14 44.5804 457.981 44.0667C457.825 43.553 457.603 43.1669 457.315 42.9083C457.03 42.6498 456.694 42.5206 456.306 42.5206C455.726 42.5206 455.262 42.8106 454.914 43.3906C454.566 43.9706 454.39 44.839 454.387 45.9957C454.387 46.7779 454.465 47.4308 454.62 47.9545C454.779 48.4749 455.003 48.866 455.292 49.1278C455.58 49.3863 455.918 49.5156 456.306 49.5156ZM461.952 51.0767V49.5255L465.577 46.1697C465.885 45.8714 466.143 45.6029 466.352 45.3643C466.564 45.1257 466.725 44.892 466.834 44.6633C466.944 44.4313 466.998 44.1811 466.998 43.9126C466.998 43.6143 466.93 43.3574 466.795 43.142C466.659 42.9233 466.473 42.7559 466.238 42.6399C466.002 42.5206 465.736 42.4609 465.437 42.4609C465.126 42.4609 464.854 42.5239 464.622 42.6498C464.39 42.7758 464.211 42.9564 464.085 43.1917C463.959 43.427 463.896 43.7071 463.896 44.0319H461.853C461.853 43.3657 462.004 42.7874 462.305 42.2968C462.607 41.8063 463.029 41.4268 463.573 41.1583C464.117 40.8899 464.743 40.7556 465.452 40.7556C466.181 40.7556 466.816 40.8849 467.356 41.1434C467.9 41.3986 468.323 41.7533 468.624 42.2073C468.926 42.6614 469.077 43.1818 469.077 43.7684C469.077 44.1529 469 44.5324 468.848 44.9069C468.699 45.2814 468.432 45.6974 468.047 46.1548C467.663 46.6089 467.121 47.1541 466.422 47.7904L464.935 49.2471V49.3167H469.211V51.0767H461.952Z" fill="#161616"/>
</g>
<defs>
<clipPath id="clip0_51_97">
<rect width="250" height="50" fill="white" transform="translate(16 20.5767)"/>
</clipPath>
<clipPath id="clip1_51_97">
<rect width="20" height="20" fill="white" transform="translate(97 35.5767)"/>
</clipPath>
<clipPath id="clip2_51_97">
<rect width="250" height="50" fill="white" transform="translate(282 20.5767)"/>
</clipPath>
<clipPath id="clip3_51_97">
<rect width="25" height="25" fill="white" transform="translate(304 33.0767)"/>
</clipPath>
</defs>
</svg>
