<svg width="169" height="75" viewBox="0 0 169 75" fill="none" xmlns="http://www.w3.org/2000/svg">
<path d="M0.169861 71.4656H168.493V74.0613H0.169861V71.4656ZM4.73083 24.7385V35.1131H30.1738V24.7385H34.5702V35.1131H41.1673L51.9296 0.170258H58.2316L69.2053 35.1131H75.8015V24.713H110.71C114.324 24.8694 116.726 26.5889 117.882 28.7813V24.5597H144.657L144.815 24.5739C153.632 25.3708 159.556 28.9871 162.514 33.5125C163.202 34.5637 163.738 35.6792 164.109 36.8355V25.0685H168.507V56.3972H164.109V44.4101C163.731 45.5819 163.181 46.7103 162.47 47.7698C159.507 52.1875 153.625 55.6721 144.801 56.3964H116.063C109.54 55.8644 103.101 54.5857 96.8599 52.1097C91.0708 49.8125 85.4814 46.4918 80.197 41.7905V56.3964H71.3602L65.8239 38.7668H44.5775L39.1482 56.3964H34.6124L40.0426 38.7668H34.571V56.3964H30.1738V38.7675H4.73083V56.3972H0.33542V24.7385H4.73083ZM45.7031 35.1131H64.6767L55.0977 4.60966L45.7031 35.1131ZM75.8015 56.1173V38.7675H70.3534L75.8015 56.1173ZM117.882 34.8826C116.723 37.0406 114.318 38.6897 110.651 38.7675H82.8126C87.8721 43.3933 93.2176 46.6167 98.7504 48.8121C104.912 51.2574 111.342 52.4337 117.883 52.8542L117.882 34.8826ZM122.278 28.2156V52.7562H144.535C151.666 52.1351 156.348 49.4197 158.641 45.9987C159.738 44.3634 160.314 42.5225 160.316 40.6501C160.319 38.7655 159.753 36.9104 158.669 35.2552C156.364 31.7287 151.635 28.8943 144.501 28.2164L122.278 28.2156ZM80.1979 35.1131H110.549C112.279 35.0764 113.382 34.3401 113.888 33.3823C114.131 32.9095 114.256 32.4007 114.255 31.8866C114.262 31.3554 114.143 30.8284 113.905 30.3354C113.391 29.2826 112.246 28.4453 110.487 28.369H80.1979V35.1131Z" fill="black"/>
</svg>
