<svg width="159" height="30" viewBox="0 0 159 30" fill="none" xmlns="http://www.w3.org/2000/svg">
<path fill-rule="evenodd" clip-rule="evenodd" d="M50.8301 4.43881H55.5845C55.5845 4.43881 51.5967 8.39259 51.1369 8.7757C51.4438 9.41321 52.824 11.8368 53.2847 12.7295C53.8984 13.6221 55.5854 17.0664 57.1187 17.9598H52.6711C52.6711 17.9598 51.1369 17.7039 50.2174 16.1737C49.2969 14.5156 47.9166 12.4743 47.7628 11.8368C47.4559 12.092 46.5355 12.9846 46.5355 13.1126V16.5576C46.5355 16.5576 46.6893 17.3215 47.6089 17.9605H41.1665C41.1665 17.9605 42.087 17.3215 42.087 16.4289V6.22565C42.087 6.22565 41.934 4.69472 41.1665 4.43956H47.4551C47.4551 4.43956 46.5346 4.69471 46.5346 5.96974V10.1787L46.6884 10.0515C46.8414 9.92353 50.3694 6.48005 50.6763 5.96974C51.1369 5.33148 51.2899 4.82117 50.8301 4.43881Z" fill="#C7232F"/>
<path fill-rule="evenodd" clip-rule="evenodd" d="M52.977 8.64776H58.6528C58.6528 8.64776 60.9535 13.1119 61.2603 13.7501C61.874 12.6023 62.1799 12.092 62.3338 11.7089C62.6406 11.3265 63.1013 10.561 63.2542 10.4331C63.2542 10.1779 63.4072 9.92279 63.4072 9.54043C63.4072 9.15807 63.1004 8.64776 62.9474 8.64776H66.9352C66.9352 8.64776 61.5663 17.9598 61.4133 17.9598C61.4133 18.087 60.4928 18.4701 59.5724 17.8311C58.6528 17.1936 58.346 16.8112 58.0382 16.3009C57.5785 15.6634 54.6641 10.561 54.5111 10.3059C54.3581 9.92353 53.5906 9.03087 52.977 8.64776ZM72.917 11.7089H73.8374C73.6836 11.8361 73.8374 9.92278 71.9965 9.92278C70.1564 9.92278 70.1564 11.7089 70.1564 11.7089H73.2247V13.4942H70.1564C70.1564 14.7707 71.2299 16.1737 73.5306 16.1737C75.6775 16.1737 77.6723 14.7707 77.6723 14.7707C77.6723 14.7707 76.9057 17.0664 76.7527 17.1936C76.7527 17.448 74.452 18.2135 71.9974 18.0863C65.402 17.8304 65.8627 13.367 65.8627 13.367C65.8627 13.367 65.7088 8.26465 71.9974 8.26465C78.1321 8.26465 77.6723 13.4942 77.6723 13.4942H72.9179L72.917 11.7089ZM107.581 11.7089H108.5C108.347 11.8361 108.5 9.92278 106.66 9.92278C104.819 9.92278 104.819 11.7089 104.819 11.7089H107.886V13.4942H104.819C104.819 14.7707 105.893 16.1737 108.194 16.1737C110.341 16.1737 112.334 14.7707 112.334 14.7707C112.334 14.7707 111.568 17.0664 111.568 17.1936C111.415 17.448 109.112 18.2135 106.812 18.0863C100.064 17.8304 100.525 13.367 100.525 13.367C100.525 13.367 100.372 8.26465 106.66 8.26465C112.794 8.26465 112.334 13.4942 112.334 13.4942H107.581V11.7089ZM84.1129 17.9598H78.1312C78.1312 17.9598 78.8987 17.448 78.8987 16.8112V10.0515C78.8987 10.0515 78.7457 9.15882 77.9791 8.77571H83.0403V9.79558C83.0403 9.79558 84.1138 8.2654 86.4145 8.3926V11.0714C86.4145 11.0714 85.0352 10.6882 83.9608 11.3265C83.1942 11.7089 83.1942 12.4743 83.1942 12.7295V16.8112C83.1942 16.8112 83.1942 17.448 84.1129 17.9598ZM86.7213 17.9598H92.856C92.856 17.9598 91.9355 17.3208 91.9355 16.684V12.3471C91.9355 12.3471 91.7826 10.689 93.4697 10.689C95.1568 10.689 95.0038 12.2199 95.0038 12.2199V16.684C95.0038 16.684 95.0038 17.448 94.0833 17.9598H100.218C100.218 17.9598 99.2993 17.448 99.2993 16.684V11.8368C99.2993 11.8368 99.6053 8.3926 95.0047 8.3926C93.4706 8.3926 91.9365 9.15807 91.6305 9.66838V8.64776H86.7222C86.7222 8.64776 87.6427 9.28602 87.6427 10.0507V16.6833C87.6427 16.6833 87.4871 17.448 86.7213 17.9598ZM118.011 12.3464V16.6833C118.011 17.3208 118.93 17.9591 118.93 17.9591H112.795C113.564 17.4472 113.716 16.6833 113.716 16.6833V5.71459C113.716 5.71459 113.408 4.56677 112.642 4.31161H118.011V12.3464ZM120.618 11.1993L121.691 8.77571C121.691 8.77571 123.533 8.2654 125.373 8.3926C127.368 8.3926 128.747 8.90292 129.361 9.54043C129.975 10.3051 130.128 11.1986 130.128 11.8361V15.1523C130.128 15.1523 129.975 16.3002 131.662 16.4274C131.048 17.4472 130.743 17.9591 130.743 17.9591C130.743 17.9591 128.135 18.3407 127.061 17.32C125.835 16.4274 125.835 15.534 125.835 13.4935C125.221 13.6214 123.227 14.0038 123.379 15.2796C123.534 16.4266 125.221 16.4266 125.527 16.4266C124.913 17.7024 124.76 17.8296 124.76 17.8296C124.76 17.8296 119.699 19.2326 119.085 15.4068C118.625 12.728 123.992 12.2184 123.533 12.2184C124.452 12.0905 125.834 11.7081 125.834 11.1978C125.679 10.6883 124.912 9.41322 120.618 11.1993Z" fill="#C7232F"/>
<path fill-rule="evenodd" clip-rule="evenodd" d="M131.661 17.9598H137.642C137.642 17.9598 136.722 17.3208 136.722 16.684V12.3471C136.722 12.3471 136.569 10.689 138.256 10.689C139.943 10.689 139.79 12.2199 139.79 12.2199V16.5568C139.79 16.5568 139.79 17.448 138.87 17.9598H145.004C145.004 17.9598 144.086 17.3208 144.086 16.684V11.8368C144.086 11.8368 144.392 8.3926 139.791 8.3926C138.257 8.3926 136.723 9.15807 136.57 9.66838V8.64776H131.662C131.662 8.64776 132.43 9.28602 132.43 10.0507V16.6833C132.43 16.6833 132.429 17.448 131.661 17.9598ZM152.826 16.5568L151.907 18.087C151.907 18.087 148.533 18.7245 146.386 16.3009C144.238 13.8773 145.619 10.4338 147.152 9.54043C148.686 8.64776 149.453 8.3926 150.834 8.3926C152.213 8.3926 153.288 8.90292 153.442 9.03087V5.8418C153.442 5.8418 153.134 4.56602 152.368 4.31161H157.582V16.5568C157.582 16.5568 157.735 17.5767 158.656 17.9598H153.442V11.964C153.442 11.964 153.442 10.4338 151.907 10.4338C150.22 10.4338 149.76 12.092 149.76 13.2398C149.76 14.2604 150.067 16.1737 152.826 16.5568Z" fill="#C7232F"/>
<path fill-rule="evenodd" clip-rule="evenodd" d="M16.7798 4.43882C16.7798 4.43882 20.154 1.24975 21.5343 0.612238C22.6077 0.101928 23.5282 0.22988 24.2948 0.101929H35.9523L30.8911 4.43882H16.7798Z" fill="#5A9654"/>
<path fill-rule="evenodd" clip-rule="evenodd" d="M30.7372 16.4281C30.7372 16.4281 34.5711 13.2398 35.4916 12.092C36.1053 11.3273 35.9523 10.4339 35.9523 9.92355V0.102692L30.7372 4.31163V16.4281ZM20.4617 5.96902H27.6707L13.2536 17.9591H0.521759C0.521759 17.9591 4.35661 14.3869 5.58301 14.0045C6.8103 13.7494 7.42305 13.7494 11.1049 13.7494C13.2527 11.8368 20.4617 5.96902 20.4617 5.96902ZM29.0501 12.9847V6.86244L14.6321 18.8525V29.8204C14.6321 29.8204 18.7737 26.5041 19.2335 25.4843C19.6933 24.4644 19.6933 23.8254 19.5395 20.8922C21.842 19.1069 29.0501 12.9847 29.0501 12.9847Z" fill="#5A9654"/>
</svg>
