<svg width="100" height="100" viewBox="0 0 100 100" fill="none" xmlns="http://www.w3.org/2000/svg">
<path d="M27.0833 0C12.125 0 0 12.125 0 27.0833C0 42.0417 12.125 54.1667 27.0833 54.1667C42.0417 54.1667 54.1667 42.0417 54.1667 27.0833C54.1667 12.125 42.0417 0 27.0833 0ZM20.9208 21.8333L34.6125 24.1167C39.9083 24.9958 43.75 29.5333 43.75 34.9C43.75 40.9292 38.8458 45.8333 32.8167 45.8333H31.25V50H22.9167V45.8333C16.025 45.8333 10.4167 40.225 10.4167 33.3333H18.75C18.75 35.6292 20.6208 37.5 22.9167 37.5H32.8167C34.25 37.5 35.4167 36.3333 35.4167 34.9C35.4167 33.6208 34.5 32.5458 33.2458 32.3333L19.5542 30.05C14.2625 29.1708 10.4208 24.6333 10.4208 19.2667C10.4208 13.2375 15.325 8.33333 21.3542 8.33333H22.9208V4.16667H31.2542V8.33333C38.1458 8.33333 43.7542 13.9417 43.7542 20.8333H35.4208C35.4208 18.5375 33.5542 16.6667 31.2542 16.6667H21.3542C19.9208 16.6667 18.7542 17.8333 18.7542 19.2667C18.7542 20.5458 19.6625 21.6208 20.9208 21.8333ZM95.8167 56.75L74.9833 68.6542L54.15 56.75L74.9833 44.8458L95.8167 56.75ZM50 64.2625L70.8333 76.1667V100L50 88.0958V64.2625ZM79.1667 76.1667L100 64.2625V88.0958L79.1667 100V76.1667ZM36.2792 78.3042C37.9042 79.9333 37.9042 82.5708 36.2792 84.1958L20.8333 100V87.5H14.5833C6.54167 87.5 0 80.9583 0 72.9167V62.5H12.5V72.9167C12.5 74.0625 13.4333 75 14.5833 75H20.8333V62.5L36.2792 78.3042ZM100 27.0833V37.5H87.5V27.0833C87.5 25.9375 86.5667 25 85.4167 25H79.1667V37.5L63.7208 21.6958C62.0958 20.0708 62.0958 17.4292 63.7208 15.8042L79.1667 0V12.5H85.4167C93.4583 12.5 100 19.0417 100 27.0833Z" fill="black"/>
</svg>
