<svg width="217" height="18" viewBox="0 0 217 18" fill="none" xmlns="http://www.w3.org/2000/svg">
<path fill-rule="evenodd" clip-rule="evenodd" d="M8.85275 7.5705C13.2717 7.5705 16.8755 9.85214 16.8755 12.6482C16.8755 15.4442 13.2705 17.7258 8.85275 17.7258C4.43503 17.7258 0.83004 15.4442 0.83004 12.6482C0.83004 9.85214 4.4338 7.5705 8.85275 7.5705ZM24.3879 10.2148C27.656 10.2148 30.3216 11.9019 30.3216 13.9703C30.3216 16.0387 27.656 17.7258 24.3879 17.7258C21.1198 17.7258 18.4542 16.0387 18.4542 13.9703C18.4542 11.9019 21.1198 10.2148 24.3879 10.2148ZM24.3879 12.4964C25.6691 12.4964 26.7166 13.1594 26.7166 13.9711C26.7166 14.7827 25.6691 15.4457 24.3879 15.4457C23.1067 15.4457 22.0592 14.7827 22.0592 13.9711C22.0592 13.1594 23.1067 12.4964 24.3879 12.4964ZM8.85275 10.2685C9.84976 10.2695 10.8055 10.5206 11.5105 10.9668C12.2155 11.413 12.6123 12.0179 12.6139 12.6489C12.6119 13.2799 12.2151 13.8847 11.5101 14.3308C10.8052 14.777 9.84967 15.0282 8.85275 15.0294C7.85583 15.0282 6.9003 14.777 6.19537 14.3308C5.49044 13.8847 5.09355 13.2799 5.0916 12.6489C5.09323 12.0179 5.49001 11.413 6.19501 10.9668C6.90001 10.5206 7.85573 10.2695 8.85275 10.2685ZM4.19896 0.165283H15.791L19.7698 7.08335H28.9704L27.9363 9.61246H18.1861L14.6242 3.07492H3.19812L4.19896 0.165283ZM63.3629 0.283568H45.9601L39.1558 17.834H56.0287C57.2964 17.834 58.5886 16.6527 58.8653 15.7547L61.3133 9.55176C61.7706 8.43273 61.3624 7.47323 59.9165 7.47323H50.272L51.8471 3.40954H62.0067L63.3629 0.283568ZM47.4945 14.6349L49.0364 10.656H53.0373C53.561 10.656 53.7086 11.0256 53.5438 11.4552L52.6561 13.8372C52.5553 14.182 52.0881 14.6349 51.6282 14.6349H47.4945ZM69.8192 0.283568H85.1859L84.1162 3.50603H75.5599L73.8631 7.51369H82.385L81.378 10.7362H72.4995L70.8594 14.6115H79.4366L78.4911 17.834H63.1133L69.7097 0.283568H69.8192ZM81.4309 17.834H87.8995L97.6042 4.00796L96.7312 17.834H103.48L104.588 0.283568H93.7483L81.4309 17.834ZM105.842 17.834H112.312L114.492 14.7259H121.335L121.141 17.834H127.889L128.998 0.283568H118.16L105.842 17.834ZM116.567 11.7711L122.014 4.00796L121.525 11.7711H116.567ZM140.48 9.75642H144.555C145.196 9.75642 145.696 9.48095 145.835 9.02726L147.702 4.53246C147.933 3.96594 147.726 3.48191 146.996 3.48191H142.874L140.48 9.75642ZM139.357 12.7019H149.329C150.597 12.7019 151.589 12.1532 151.865 11.2568L155.553 2.36366C156.012 1.24385 155.601 0.284346 154.158 0.284346H137.597L130.902 17.8348H137.398L139.357 12.7019ZM173.502 16.2263L180.041 0.283568H172.699L170.165 6.80243L170.16 6.80787C170.153 6.8297 170.146 6.85149 170.138 6.87324C170.136 6.87713 170.133 6.88103 170.133 6.88492C169.929 7.37985 169.314 7.61019 168.577 7.61019H166.384C165.5 7.61019 165.251 7.20008 165.532 6.51605L167.868 0.285123H160.856L157.758 8.59926C157.302 9.71829 157.71 10.6786 159.156 10.6786H168.659L167.381 13.9602C167.213 14.5088 166.505 14.7672 165.731 14.7672H163.539C162.655 14.7672 162.406 14.3571 162.687 13.673L162.997 12.7641H155.987L154.914 15.7555C154.458 16.8753 154.866 17.8348 156.312 17.8348H170.797C172.066 17.834 173.227 17.1227 173.502 16.2263ZM212.459 2.90449H211.501V4.06866H212.459C212.998 4.06866 213.381 4.02508 213.6 3.94026C213.816 3.85388 213.927 3.70836 213.927 3.5037C213.927 3.29126 213.809 3.13795 213.581 3.04535C213.35 2.95119 212.975 2.90449 212.459 2.90449ZM212.605 2.57377C213.323 2.57377 213.857 2.64692 214.202 2.79322C214.548 2.93874 214.721 3.16441 214.721 3.46946C214.721 3.69747 214.61 3.88734 214.394 4.04065C214.173 4.1955 213.882 4.28889 213.512 4.32157L214.653 5.81569H213.774L212.696 4.39083H211.5V5.81569H210.729V2.57377H212.605ZM216.432 4.25154C216.432 3.90913 216.337 3.58541 216.142 3.28114C215.948 2.97687 215.669 2.7084 215.304 2.4765C214.932 2.24089 214.49 2.05441 214.004 1.9279C213.517 1.80138 212.996 1.73736 212.47 1.73955C211.943 1.73955 211.447 1.80103 210.973 1.92242C210.502 2.04615 210.079 2.22592 209.708 2.46015C209.334 2.69876 209.035 2.98028 208.827 3.2897C208.62 3.59553 208.519 3.9138 208.519 4.24298C208.519 4.5737 208.618 4.88965 208.819 5.19081C209.021 5.49274 209.309 5.76355 209.686 6.00323C210.063 6.24214 210.493 6.42423 210.971 6.5503C211.447 6.67714 211.948 6.74017 212.47 6.74017C212.996 6.74017 213.502 6.67558 213.989 6.54874C214.479 6.41947 214.925 6.23161 215.302 5.99545C215.673 5.769 215.95 5.50675 216.143 5.21182C216.339 4.91766 216.432 4.59783 216.432 4.25154ZM212.471 1.42594C213.086 1.42594 213.662 1.49676 214.202 1.63683C214.742 1.77846 215.223 1.98312 215.638 2.25238C216.051 2.51307 216.368 2.81423 216.586 3.15663C216.807 3.49903 216.918 3.85933 216.918 4.24064C216.918 4.62507 216.81 4.98537 216.594 5.32076C216.377 5.65616 216.057 5.95343 215.638 6.2149C215.205 6.48571 214.716 6.69504 214.171 6.839C213.624 6.98452 213.06 7.05689 212.471 7.05689C211.887 7.05866 211.309 6.98575 210.771 6.84253C210.232 6.69931 209.746 6.48874 209.339 6.22346C208.923 5.96418 208.593 5.65488 208.369 5.31376C208.147 4.97353 208.034 4.60888 208.036 4.2408C208.037 3.87272 208.154 3.50849 208.379 3.16908C208.608 2.82201 208.936 2.51073 209.366 2.23681C209.765 1.97773 210.243 1.7728 210.772 1.6345C211.311 1.49431 211.888 1.42341 212.471 1.42594ZM184.096 1.89286L178.429 15.7555C177.97 16.8753 178.378 17.8348 179.824 17.8348H194.309C195.577 17.8348 196.869 16.6535 197.146 15.7555L199.257 10.6513H192.2L190.977 13.4979C190.809 14.045 190.02 14.7672 189.246 14.7672H187.054C186.172 14.7672 185.923 14.182 186.202 13.4979L189.938 4.68421C190.109 4.13636 190.818 3.70214 191.591 3.70214H193.783C194.665 3.70214 194.914 4.28733 194.635 4.97135L193.492 7.63431H200.504L202.684 2.36288C203.14 1.24307 202.732 0.283568 201.286 0.283568H186.803C185.534 0.283568 184.371 0.99483 184.096 1.89286Z" fill="#8B1A1E"/>
</svg>
